# xmcd CD database file
#
# Track frame offsets:
#	150
#	16855
#	32672
#	45857
#	62947
#	78580
#	94987
#	111007
#	126510
#	142222
#	159012
#	175317
#	192412
#	205847
#	222802
#	241625
#	259260
#	265702
#	281130
#	293150
#	316667
#
# Disc length: 4440 seconds
#
# Revision: 3
# Processed by: cddbd v1.5.1PL0 Copyright (c) Steve Scherf et al.
# Submitted via: CDex 1.51
#
DISCID=2d115615
DTITLE=Hilary Duff - Hilary Duff
DYEAR=2004
DGENRE=
TTITLE0=Fly
TTITLE1=Do You Want Me?
TTITLE2=Weird
TTITLE3=Hide Away
TTITLE4=Mr. James Dean
TTITLE5=Underneath This Smile
TTITLE6=Dangerous To Know
TTITLE7=Who's That Girl?
TTITLE8=Shine
TTITLE9=I Am
TTITLE10=The Getaway
TTITLE11=Cry
TTITLE12=Haters
TTITLE13=Rock This World
TTITLE14=Someone's Watching Over Me
TTITLE15=Jericho
TTITLE16=The Last Song
TTITLE17=Who's That Girl? (Acoustic Mix)
TTITLE18=Our Lips Are Sealed
TTITLE19=My Generation
TTITLE20=DATA TRACK
EXTD=YEAR: 2004
EXTT0=
EXTT1=
EXTT2=
EXTT3=
EXTT4=
EXTT5=
EXTT6=
EXTT7=
EXTT8=
EXTT9=
EXTT10=
EXTT11=
EXTT12=
EXTT13=
EXTT14=
EXTT15=
EXTT16=
EXTT17=
EXTT18=
EXTT19=
EXTT20=
PLAYORDER=
